<mxfile host="app.diagrams.net" modified="2022-04-06T03:14:30.748Z" agent="5.0 (Macintosh; Intel Mac OS X 10_15_7) AppleWebKit/537.36 (KHTML, like Gecko) Chrome/99.0.4844.84 Safari/537.36" etag="2DApfA-xth_obIvaHrZ4" version="17.4.0" type="github">
  <diagram id="NlS-n2yb02kFfHmvvQMq" name="Page-1">
    <mxGraphModel dx="1029" dy="492" grid="1" gridSize="10" guides="1" tooltips="1" connect="1" arrows="1" fold="1" page="1" pageScale="1" pageWidth="827" pageHeight="1169" math="0" shadow="0">
      <root>
        <mxCell id="0" />
        <mxCell id="1" parent="0" />
        <mxCell id="54CzNSjKrcdXfeyjSjph-16" style="edgeStyle=orthogonalEdgeStyle;rounded=0;orthogonalLoop=1;jettySize=auto;html=1;entryX=0.5;entryY=0;entryDx=0;entryDy=0;" parent="1" source="54CzNSjKrcdXfeyjSjph-11" target="54CzNSjKrcdXfeyjSjph-12" edge="1">
          <mxGeometry relative="1" as="geometry" />
        </mxCell>
        <mxCell id="54CzNSjKrcdXfeyjSjph-11" value="프로젝트 등록 버튼 클릭" style="ellipse;whiteSpace=wrap;html=1;" parent="1" vertex="1">
          <mxGeometry x="50" y="50" width="140" height="60" as="geometry" />
        </mxCell>
        <mxCell id="54CzNSjKrcdXfeyjSjph-17" style="edgeStyle=orthogonalEdgeStyle;rounded=0;orthogonalLoop=1;jettySize=auto;html=1;entryX=0.5;entryY=0;entryDx=0;entryDy=0;" parent="1" source="54CzNSjKrcdXfeyjSjph-12" target="54CzNSjKrcdXfeyjSjph-13" edge="1">
          <mxGeometry relative="1" as="geometry" />
        </mxCell>
        <mxCell id="54CzNSjKrcdXfeyjSjph-12" value="프로젝트 등록 페이지 이동" style="rounded=1;whiteSpace=wrap;html=1;" parent="1" vertex="1">
          <mxGeometry x="50" y="150" width="140" height="40" as="geometry" />
        </mxCell>
        <mxCell id="54CzNSjKrcdXfeyjSjph-18" style="edgeStyle=orthogonalEdgeStyle;rounded=0;orthogonalLoop=1;jettySize=auto;html=1;" parent="1" source="54CzNSjKrcdXfeyjSjph-13" target="54CzNSjKrcdXfeyjSjph-14" edge="1">
          <mxGeometry relative="1" as="geometry" />
        </mxCell>
        <mxCell id="54CzNSjKrcdXfeyjSjph-13" value="프로젝트 제목, 난이도, 기간, &lt;br&gt;소개, 필요 기술 스택, 모집 완료 상태, &lt;br&gt;개발 완료 상태 작성" style="shape=parallelogram;perimeter=parallelogramPerimeter;whiteSpace=wrap;html=1;fixedSize=1;" parent="1" vertex="1">
          <mxGeometry x="10" y="240" width="220" height="80" as="geometry" />
        </mxCell>
        <mxCell id="54CzNSjKrcdXfeyjSjph-19" style="edgeStyle=orthogonalEdgeStyle;rounded=0;orthogonalLoop=1;jettySize=auto;html=1;" parent="1" source="54CzNSjKrcdXfeyjSjph-14" target="54CzNSjKrcdXfeyjSjph-15" edge="1">
          <mxGeometry relative="1" as="geometry" />
        </mxCell>
        <mxCell id="54CzNSjKrcdXfeyjSjph-20" style="edgeStyle=orthogonalEdgeStyle;rounded=0;orthogonalLoop=1;jettySize=auto;html=1;entryX=1;entryY=0.5;entryDx=0;entryDy=0;" parent="1" source="54CzNSjKrcdXfeyjSjph-14" target="54CzNSjKrcdXfeyjSjph-13" edge="1">
          <mxGeometry relative="1" as="geometry">
            <Array as="points">
              <mxPoint x="260" y="390" />
              <mxPoint x="260" y="280" />
            </Array>
          </mxGeometry>
        </mxCell>
        <mxCell id="54CzNSjKrcdXfeyjSjph-14" value="필요한 정보가 모두 &lt;br&gt;입력되었는가?" style="rhombus;whiteSpace=wrap;html=1;" parent="1" vertex="1">
          <mxGeometry x="50" y="350" width="140" height="80" as="geometry" />
        </mxCell>
        <mxCell id="54CzNSjKrcdXfeyjSjph-50" style="edgeStyle=orthogonalEdgeStyle;rounded=0;orthogonalLoop=1;jettySize=auto;html=1;entryX=0.5;entryY=0;entryDx=0;entryDy=0;" parent="1" source="54CzNSjKrcdXfeyjSjph-15" target="54CzNSjKrcdXfeyjSjph-47" edge="1">
          <mxGeometry relative="1" as="geometry" />
        </mxCell>
        <mxCell id="54CzNSjKrcdXfeyjSjph-15" value="입력된 정보와 프로젝트 id, 생성 날짜 프로젝트 DB에 저장" style="rounded=1;whiteSpace=wrap;html=1;" parent="1" vertex="1">
          <mxGeometry x="60" y="470" width="120" height="60" as="geometry" />
        </mxCell>
        <mxCell id="54CzNSjKrcdXfeyjSjph-21" value="Y" style="text;html=1;align=center;verticalAlign=middle;resizable=0;points=[];autosize=1;strokeColor=none;fillColor=none;" parent="1" vertex="1">
          <mxGeometry x="120" y="440" width="20" height="20" as="geometry" />
        </mxCell>
        <mxCell id="54CzNSjKrcdXfeyjSjph-22" value="N" style="text;html=1;align=center;verticalAlign=middle;resizable=0;points=[];autosize=1;strokeColor=none;fillColor=none;" parent="1" vertex="1">
          <mxGeometry x="190" y="370" width="20" height="20" as="geometry" />
        </mxCell>
        <mxCell id="54CzNSjKrcdXfeyjSjph-32" style="edgeStyle=orthogonalEdgeStyle;rounded=0;orthogonalLoop=1;jettySize=auto;html=1;entryX=0.5;entryY=0;entryDx=0;entryDy=0;" parent="1" source="54CzNSjKrcdXfeyjSjph-23" target="54CzNSjKrcdXfeyjSjph-24" edge="1">
          <mxGeometry relative="1" as="geometry" />
        </mxCell>
        <mxCell id="54CzNSjKrcdXfeyjSjph-23" value="참여하려는 프로젝트 페이지 클릭" style="ellipse;whiteSpace=wrap;html=1;" parent="1" vertex="1">
          <mxGeometry x="430" y="55" width="170" height="50" as="geometry" />
        </mxCell>
        <mxCell id="54CzNSjKrcdXfeyjSjph-33" style="edgeStyle=orthogonalEdgeStyle;rounded=0;orthogonalLoop=1;jettySize=auto;html=1;entryX=0.5;entryY=0;entryDx=0;entryDy=0;" parent="1" source="54CzNSjKrcdXfeyjSjph-24" target="54CzNSjKrcdXfeyjSjph-26" edge="1">
          <mxGeometry relative="1" as="geometry" />
        </mxCell>
        <mxCell id="54CzNSjKrcdXfeyjSjph-24" value="해당 프로젝트 페이지로 이동" style="rounded=1;whiteSpace=wrap;html=1;" parent="1" vertex="1">
          <mxGeometry x="440" y="150" width="150" height="40" as="geometry" />
        </mxCell>
        <mxCell id="54CzNSjKrcdXfeyjSjph-34" style="edgeStyle=orthogonalEdgeStyle;rounded=0;orthogonalLoop=1;jettySize=auto;html=1;entryX=0.5;entryY=0;entryDx=0;entryDy=0;" parent="1" source="54CzNSjKrcdXfeyjSjph-26" target="54CzNSjKrcdXfeyjSjph-27" edge="1">
          <mxGeometry relative="1" as="geometry" />
        </mxCell>
        <mxCell id="54CzNSjKrcdXfeyjSjph-42" style="edgeStyle=orthogonalEdgeStyle;rounded=0;orthogonalLoop=1;jettySize=auto;html=1;entryX=0;entryY=0.5;entryDx=0;entryDy=0;" parent="1" source="54CzNSjKrcdXfeyjSjph-26" target="54CzNSjKrcdXfeyjSjph-40" edge="1">
          <mxGeometry relative="1" as="geometry" />
        </mxCell>
        <mxCell id="54CzNSjKrcdXfeyjSjph-26" value="개발 완료 전 &amp;amp;&amp;amp; 모집 중&lt;br&gt;인가?" style="rhombus;whiteSpace=wrap;html=1;" parent="1" vertex="1">
          <mxGeometry x="417.5" y="240" width="195" height="80" as="geometry" />
        </mxCell>
        <mxCell id="54CzNSjKrcdXfeyjSjph-35" style="edgeStyle=orthogonalEdgeStyle;rounded=0;orthogonalLoop=1;jettySize=auto;html=1;entryX=0.5;entryY=0;entryDx=0;entryDy=0;" parent="1" source="54CzNSjKrcdXfeyjSjph-27" target="54CzNSjKrcdXfeyjSjph-28" edge="1">
          <mxGeometry relative="1" as="geometry" />
        </mxCell>
        <mxCell id="54CzNSjKrcdXfeyjSjph-27" value="&#39;팀장에게 쪽지보내기&#39; &lt;br&gt;버튼 활성화" style="rounded=1;whiteSpace=wrap;html=1;" parent="1" vertex="1">
          <mxGeometry x="455" y="365" width="120" height="50" as="geometry" />
        </mxCell>
        <mxCell id="54CzNSjKrcdXfeyjSjph-36" style="edgeStyle=orthogonalEdgeStyle;rounded=0;orthogonalLoop=1;jettySize=auto;html=1;" parent="1" source="54CzNSjKrcdXfeyjSjph-28" target="54CzNSjKrcdXfeyjSjph-29" edge="1">
          <mxGeometry relative="1" as="geometry" />
        </mxCell>
        <mxCell id="54CzNSjKrcdXfeyjSjph-28" value="팀장과 연락" style="rounded=1;whiteSpace=wrap;html=1;" parent="1" vertex="1">
          <mxGeometry x="455" y="460" width="120" height="40" as="geometry" />
        </mxCell>
        <mxCell id="54CzNSjKrcdXfeyjSjph-37" style="edgeStyle=orthogonalEdgeStyle;rounded=0;orthogonalLoop=1;jettySize=auto;html=1;entryX=0.5;entryY=0;entryDx=0;entryDy=0;" parent="1" source="54CzNSjKrcdXfeyjSjph-29" target="54CzNSjKrcdXfeyjSjph-30" edge="1">
          <mxGeometry relative="1" as="geometry" />
        </mxCell>
        <mxCell id="54CzNSjKrcdXfeyjSjph-38" style="edgeStyle=orthogonalEdgeStyle;rounded=0;orthogonalLoop=1;jettySize=auto;html=1;entryX=0;entryY=0.5;entryDx=0;entryDy=0;" parent="1" source="54CzNSjKrcdXfeyjSjph-29" target="54CzNSjKrcdXfeyjSjph-31" edge="1">
          <mxGeometry relative="1" as="geometry" />
        </mxCell>
        <mxCell id="54CzNSjKrcdXfeyjSjph-29" value="팀원으로 수락할것인가?" style="rhombus;whiteSpace=wrap;html=1;" parent="1" vertex="1">
          <mxGeometry x="440" y="540" width="150" height="90" as="geometry" />
        </mxCell>
        <mxCell id="54CzNSjKrcdXfeyjSjph-30" value="참여 DB에 팀원 추가" style="rounded=1;whiteSpace=wrap;html=1;" parent="1" vertex="1">
          <mxGeometry x="455" y="680" width="120" height="60" as="geometry" />
        </mxCell>
        <mxCell id="54CzNSjKrcdXfeyjSjph-31" value="END" style="ellipse;whiteSpace=wrap;html=1;" parent="1" vertex="1">
          <mxGeometry x="650" y="560" width="80" height="50" as="geometry" />
        </mxCell>
        <mxCell id="54CzNSjKrcdXfeyjSjph-40" value="END" style="ellipse;whiteSpace=wrap;html=1;" parent="1" vertex="1">
          <mxGeometry x="660" y="255" width="80" height="50" as="geometry" />
        </mxCell>
        <mxCell id="54CzNSjKrcdXfeyjSjph-43" value="Y" style="text;html=1;align=center;verticalAlign=middle;resizable=0;points=[];autosize=1;strokeColor=none;fillColor=none;" parent="1" vertex="1">
          <mxGeometry x="520" y="330" width="20" height="20" as="geometry" />
        </mxCell>
        <mxCell id="54CzNSjKrcdXfeyjSjph-44" value="Y" style="text;html=1;align=center;verticalAlign=middle;resizable=0;points=[];autosize=1;strokeColor=none;fillColor=none;" parent="1" vertex="1">
          <mxGeometry x="520" y="640" width="20" height="20" as="geometry" />
        </mxCell>
        <mxCell id="54CzNSjKrcdXfeyjSjph-45" value="N" style="text;html=1;align=center;verticalAlign=middle;resizable=0;points=[];autosize=1;strokeColor=none;fillColor=none;" parent="1" vertex="1">
          <mxGeometry x="612.5" y="260" width="20" height="20" as="geometry" />
        </mxCell>
        <mxCell id="54CzNSjKrcdXfeyjSjph-46" value="N" style="text;html=1;align=center;verticalAlign=middle;resizable=0;points=[];autosize=1;strokeColor=none;fillColor=none;" parent="1" vertex="1">
          <mxGeometry x="592.5" y="560" width="20" height="20" as="geometry" />
        </mxCell>
        <mxCell id="54CzNSjKrcdXfeyjSjph-47" value="참여 DB에 추가" style="rounded=1;whiteSpace=wrap;html=1;" parent="1" vertex="1">
          <mxGeometry x="45" y="570" width="150" height="50" as="geometry" />
        </mxCell>
        <mxCell id="54CzNSjKrcdXfeyjSjph-51" value="참여 DB" style="shape=cylinder3;whiteSpace=wrap;html=1;boundedLbl=1;backgroundOutline=1;size=15;" parent="1" vertex="1">
          <mxGeometry x="45" y="750" width="125" height="80" as="geometry" />
        </mxCell>
        <mxCell id="54CzNSjKrcdXfeyjSjph-52" value="프로젝트 DB" style="shape=cylinder3;whiteSpace=wrap;html=1;boundedLbl=1;backgroundOutline=1;size=15;" parent="1" vertex="1">
          <mxGeometry x="240" y="745" width="140" height="85" as="geometry" />
        </mxCell>
        <mxCell id="54CzNSjKrcdXfeyjSjph-53" value="" style="endArrow=none;dashed=1;html=1;dashPattern=1 3;strokeWidth=2;rounded=0;entryX=0.5;entryY=1;entryDx=0;entryDy=0;exitX=0.592;exitY=0;exitDx=0;exitDy=0;exitPerimeter=0;" parent="1" source="54CzNSjKrcdXfeyjSjph-51" target="54CzNSjKrcdXfeyjSjph-47" edge="1">
          <mxGeometry width="50" height="50" relative="1" as="geometry">
            <mxPoint x="120" y="740" as="sourcePoint" />
            <mxPoint x="150" y="650" as="targetPoint" />
          </mxGeometry>
        </mxCell>
        <mxCell id="54CzNSjKrcdXfeyjSjph-54" value="" style="endArrow=none;dashed=1;html=1;dashPattern=1 3;strokeWidth=2;rounded=0;exitX=0.5;exitY=0;exitDx=0;exitDy=0;exitPerimeter=0;entryX=1;entryY=0.5;entryDx=0;entryDy=0;" parent="1" source="54CzNSjKrcdXfeyjSjph-52" target="54CzNSjKrcdXfeyjSjph-15" edge="1">
          <mxGeometry width="50" height="50" relative="1" as="geometry">
            <mxPoint x="420" y="720" as="sourcePoint" />
            <mxPoint x="470" y="670" as="targetPoint" />
            <Array as="points">
              <mxPoint x="310" y="500" />
            </Array>
          </mxGeometry>
        </mxCell>
        <mxCell id="54CzNSjKrcdXfeyjSjph-55" value="" style="endArrow=none;dashed=1;html=1;dashPattern=1 3;strokeWidth=2;rounded=0;exitX=0.5;exitY=1;exitDx=0;exitDy=0;entryX=0.5;entryY=1;entryDx=0;entryDy=0;entryPerimeter=0;" parent="1" source="54CzNSjKrcdXfeyjSjph-30" target="54CzNSjKrcdXfeyjSjph-51" edge="1">
          <mxGeometry width="50" height="50" relative="1" as="geometry">
            <mxPoint x="420" y="720" as="sourcePoint" />
            <mxPoint x="470" y="670" as="targetPoint" />
            <Array as="points">
              <mxPoint x="515" y="880" />
              <mxPoint x="108" y="880" />
            </Array>
          </mxGeometry>
        </mxCell>
        <mxCell id="54CzNSjKrcdXfeyjSjph-56" value="" style="endArrow=none;dashed=1;html=1;dashPattern=1 3;strokeWidth=2;rounded=0;exitX=0.779;exitY=-0.012;exitDx=0;exitDy=0;exitPerimeter=0;entryX=0;entryY=0.5;entryDx=0;entryDy=0;" parent="1" source="54CzNSjKrcdXfeyjSjph-52" target="54CzNSjKrcdXfeyjSjph-26" edge="1">
          <mxGeometry width="50" height="50" relative="1" as="geometry">
            <mxPoint x="420" y="580" as="sourcePoint" />
            <mxPoint x="470" y="530" as="targetPoint" />
            <Array as="points">
              <mxPoint x="350" y="280" />
            </Array>
          </mxGeometry>
        </mxCell>
        <mxCell id="54CzNSjKrcdXfeyjSjph-57" value="" style="shape=link;html=1;rounded=0;entryX=0;entryY=0.5;entryDx=0;entryDy=0;entryPerimeter=0;" parent="1" source="54CzNSjKrcdXfeyjSjph-51" target="54CzNSjKrcdXfeyjSjph-52" edge="1">
          <mxGeometry width="100" relative="1" as="geometry">
            <mxPoint x="170" y="800" as="sourcePoint" />
            <mxPoint x="240" y="800" as="targetPoint" />
          </mxGeometry>
        </mxCell>
        <mxCell id="WiztXRMFDuCrWzAfiVb9-1" value="프로젝트 등록" style="text;html=1;align=center;verticalAlign=middle;resizable=0;points=[];autosize=1;strokeColor=none;fillColor=none;" parent="1" vertex="1">
          <mxGeometry x="40" y="20" width="80" height="20" as="geometry" />
        </mxCell>
        <mxCell id="WiztXRMFDuCrWzAfiVb9-3" value="프로젝트 참여" style="text;html=1;align=center;verticalAlign=middle;resizable=0;points=[];autosize=1;strokeColor=none;fillColor=none;" parent="1" vertex="1">
          <mxGeometry x="440" y="20" width="80" height="20" as="geometry" />
        </mxCell>
      </root>
    </mxGraphModel>
  </diagram>
</mxfile>
